<svg width="23" height="17" viewBox="0 0 23 17" fill="none" xmlns="http://www.w3.org/2000/svg">
<path d="M0.810898 9.37179L2.21154 17H10.2468L9.28846 11.9872C8.74786 9.42022 8.03526 7.26496 7.15064 5.52137C6.26603 3.72934 5.11111 1.88889 3.6859 0H0C0.638889 1.16239 1.22863 2.22792 1.76923 3.19658C2.30983 4.16524 2.77671 5.15812 3.16987 6.17521C3.56303 7.14387 3.88248 8.2094 4.1282 9.37179H0.810898ZM13.6378 9.37179L15.0385 17H23L22.0417 11.9872C21.5011 9.42022 20.7885 7.26496 19.9038 5.52137C19.0192 3.72934 17.8889 1.88889 16.5128 0H12.8269C13.4658 1.16239 14.0556 2.22792 14.5962 3.19658C15.0876 4.16524 15.5299 5.15812 15.9231 6.17521C16.3162 7.14387 16.6357 8.2094 16.8814 9.37179H13.6378Z" fill="#C4C4C4"/>
</svg>
