<svg width="352" height="108" viewBox="0 0 352 108" fill="none" xmlns="http://www.w3.org/2000/svg">
<path d="M155.264 53.7982C155.264 52.2649 156.179 51.1968 157.578 51.1968C158.977 51.1968 159.893 52.2649 159.893 53.7982C159.893 55.3143 158.977 56.3996 157.578 56.3996C156.179 56.3996 155.264 55.3143 155.264 53.7982Z" fill="#FCFFF4"/>
<path d="M167.095 51.1279C165.765 51.1279 164.867 52.1616 164.867 53.5743C164.867 55.0042 165.783 56.0724 167.095 56.0724C168.546 56.0724 169.513 54.987 169.513 53.5743C169.513 52.1788 168.546 51.1279 167.095 51.1279Z" fill="#FCFFF4"/>
<path d="M174.805 53.7977C174.805 52.2644 175.72 51.1963 177.119 51.1963C178.518 51.1963 179.434 52.2644 179.434 53.7977C179.434 55.3138 178.518 56.3991 177.119 56.3991C175.72 56.3991 174.805 55.3138 174.805 53.7977Z" fill="#FCFFF4"/>
<path d="M188.879 53.8153C188.879 52.282 189.812 51.2139 191.28 51.2139C192.748 51.2139 193.629 52.2992 193.629 53.8153C193.629 55.3313 192.748 56.3995 191.28 56.3995C189.812 56.3995 188.879 55.3486 188.879 53.8153Z" fill="#FCFFF4"/>
<path fill-rule="evenodd" clip-rule="evenodd" d="M188.001 71.8218C217.348 71.8218 241.138 63.4952 241.138 53.2236C241.138 42.9521 217.348 34.6255 188.001 34.6255C158.654 34.6255 134.863 42.9521 134.863 53.2236C134.863 63.4952 158.654 71.8218 188.001 71.8218ZM151.849 58.0707V45.253H149.742V58.0707H151.849ZM153.139 53.7981C153.139 56.4168 154.901 58.2774 157.578 58.2774C160.255 58.2774 162.017 56.4168 162.017 53.7981C162.017 51.1794 160.255 49.3188 157.578 49.3188C154.901 49.3188 153.139 51.1794 153.139 53.7981ZM166.732 57.8984C164.332 57.8984 162.725 56.1067 162.725 53.6258C162.725 51.1278 164.366 49.2843 166.801 49.2843C168.062 49.2843 169.133 49.8185 169.651 50.7143L169.772 49.56H171.638V57.64C171.638 60.4482 169.876 62.257 167.112 62.257C164.763 62.257 163.053 60.81 162.777 58.5875H164.902C165.022 59.7073 165.921 60.3448 167.233 60.3448C168.701 60.3448 169.582 59.4145 169.582 58.0189V56.5719C169.047 57.3987 167.976 57.8984 166.732 57.8984ZM172.68 53.7981C172.68 56.4168 174.442 58.2774 177.119 58.2774C179.797 58.2774 181.558 56.4168 181.558 53.7981C181.558 51.1794 179.797 49.3188 177.119 49.3188C174.442 49.3188 172.68 51.1794 172.68 53.7981ZM185.1 46.5624C185.1 47.2687 184.53 47.82 183.839 47.82C183.131 47.82 182.595 47.2687 182.595 46.5624C182.595 45.8732 183.131 45.3219 183.839 45.3219C184.53 45.3219 185.1 45.8732 185.1 46.5624ZM184.892 49.56V58.0707H182.785V49.56H184.892ZM186.738 62.0159H188.794V56.8992C189.329 57.7778 190.486 58.2946 191.765 58.2946C194.286 58.2946 195.789 56.3651 195.754 53.712C195.703 51.0416 194.165 49.3016 191.747 49.3016C190.452 49.3016 189.277 49.8701 188.759 50.8521L188.638 49.56H186.738V62.0159ZM199.709 58.2946C197.671 58.2946 196.359 57.2092 196.29 55.5209H198.207C198.207 56.2617 198.742 56.6924 199.675 56.6924C200.452 56.6924 201.091 56.3823 201.091 55.7104C201.091 55.228 200.746 54.9696 200.193 54.8146L198.708 54.4355C197.067 54.0048 196.428 53.0918 196.428 51.9891C196.428 50.3697 197.792 49.3016 199.623 49.3016C201.471 49.3016 202.732 50.3697 202.801 52.0581H200.884C200.884 51.3173 200.366 50.8694 199.571 50.8694C198.811 50.8694 198.345 51.2828 198.345 51.8686C198.345 52.4199 198.777 52.6438 199.416 52.8161L200.918 53.1779C202.317 53.5224 203.077 54.3494 203.077 55.5726C203.077 57.2265 201.713 58.2946 199.709 58.2946ZM207.448 58.2946C208.605 58.2946 209.711 57.7605 210.212 56.9681L210.35 58.0707H212.319V49.56H210.212V54.0221C210.212 55.5554 209.624 56.4168 208.243 56.4168C207.172 56.4168 206.429 55.8999 206.429 54.1427V49.56H204.322V54.8835C204.322 56.9164 205.427 58.2946 207.448 58.2946ZM216.286 53.1779V58.0707H214.179V49.56H216.113L216.217 50.5248C216.718 49.7668 217.616 49.3016 218.617 49.3016C220.034 49.3016 220.967 49.9218 221.433 50.921C221.848 49.9218 222.867 49.3016 224.162 49.3016C226.235 49.3016 227.323 50.5421 227.323 52.506V58.0707H225.284V52.9884C225.284 51.7825 224.629 51.145 223.61 51.145C222.607 51.145 221.813 51.7997 221.813 53.1951V58.0707H219.757V52.9884C219.757 51.7825 219.102 51.145 218.099 51.145C217.098 51.145 216.286 51.7997 216.286 53.1779Z" fill="#FCFFF4"/>
</svg>
