<svg width="352" height="108" viewBox="0 0 352 108" fill="none" xmlns="http://www.w3.org/2000/svg">
<g clip-path="url(#clip0_484_427)">
<path fill-rule="evenodd" clip-rule="evenodd" d="M163.148 40.4965C163.148 39.4799 163.982 38.6558 165.009 38.6558H168.251C168.983 38.6558 169.692 38.9065 170.257 39.3653L171.244 40.1653L171.268 40.1876C171.291 40.18 171.314 40.1725 171.337 40.1653C173.116 39.6016 175.274 39.4944 177.478 39.4944C179.681 39.4944 181.84 39.6016 183.619 40.1653C183.642 40.1725 183.664 40.18 183.687 40.1876L183.712 40.1653L184.698 39.3653C185.264 38.9065 185.973 38.6558 186.704 38.6558H189.946C190.974 38.6558 191.807 39.4799 191.807 40.4965V41.6345C191.807 42.5149 191.432 43.3546 190.774 43.9476L189.978 44.6646C189.59 45.0147 189.124 45.2695 188.618 45.4084L188.429 45.46C189.167 47.1999 189.574 49.0598 189.574 50.5643C189.574 56.6166 185.788 59.2305 182.452 61.5336C179.825 63.3473 177.478 64.9683 177.478 67.9241C177.478 64.9683 175.13 63.3473 172.503 61.5336C169.167 59.2305 165.382 56.6166 165.382 50.5643C165.382 49.0598 165.789 47.1999 166.526 45.46L166.338 45.4084C165.831 45.2695 165.365 45.0147 164.977 44.6646L164.181 43.9476C163.523 43.3546 163.148 42.5149 163.148 41.6345V40.4965ZM179.897 55.5123C179.897 55.8015 179.769 56.0787 179.543 56.2832C179.316 56.4876 179.008 56.6025 178.687 56.6025C178.41 56.6025 178.143 56.5168 177.929 56.3619C178.293 57.3255 179.225 58.2386 180.641 56.7702C181.892 55.4058 180.586 52.5281 179.313 50.8204C178.889 50.2512 178.193 49.9773 177.478 49.9773C176.763 49.9773 176.066 50.2512 175.642 50.8204C174.37 52.5281 173.063 55.4058 174.314 56.7702C175.731 58.2386 176.662 57.3255 177.026 56.3619C176.812 56.5168 176.545 56.6025 176.268 56.6025C175.947 56.6025 175.64 56.4876 175.413 56.2832C175.186 56.0787 175.058 55.8015 175.058 55.5123H179.897ZM172.845 46.9937H169.476L172.131 49.0971C172.716 49.5599 173.57 49.412 173.932 48.7853C174.388 47.994 173.782 46.9937 172.845 46.9937ZM182.11 46.9937H185.48L182.824 49.0971C182.24 49.5599 181.385 49.412 181.024 48.7853C180.567 47.994 181.174 46.9937 182.11 46.9937Z" fill="#FCFFF4"/>
<path d="M195.822 59.3875H198.808V48.1265H195.822V59.3875ZM195.822 46.3704H198.808V43.6924H195.822V46.3704Z" fill="#FCFFF4"/>
<path d="M200.73 63.0754H203.716V58.1145H203.76C204.396 59.0803 205.428 59.7169 207.009 59.7169C209.906 59.7169 211.882 57.412 211.882 53.7681C211.882 50.2559 209.972 47.8193 206.987 47.8193C205.45 47.8193 204.396 48.5437 203.672 49.5315H203.606V48.1267H200.73V63.0754ZM206.372 57.2364C204.594 57.2364 203.65 55.8974 203.65 53.8559C203.65 51.8364 204.396 50.234 206.262 50.234C208.106 50.234 208.852 51.7267 208.852 53.8559C208.852 55.9852 207.887 57.2364 206.372 57.2364Z" fill="#FCFFF4"/>
<path d="M217.837 59.7169C220.646 59.7169 222.578 58.3559 222.578 56.0949C222.578 53.4608 220.493 52.934 218.605 52.5388C217.003 52.2096 215.51 52.1218 215.51 51.1559C215.51 50.3437 216.278 49.9047 217.442 49.9047C218.715 49.9047 219.483 50.3437 219.615 51.551H222.315C222.095 49.2901 220.449 47.8193 217.485 47.8193C214.917 47.8193 212.898 48.9828 212.898 51.4193C212.898 53.8779 214.873 54.4267 216.893 54.8218C218.429 55.1291 219.856 55.2388 219.856 56.3145C219.856 57.1047 219.11 57.6096 217.793 57.6096C216.454 57.6096 215.532 57.0388 215.334 55.7437H212.568C212.744 58.1364 214.566 59.7169 217.837 59.7169Z" fill="#FCFFF4"/>
<path d="M233.913 59.3874V48.1265H230.928V54.624C230.928 56.1167 230.072 57.1704 228.667 57.1704C227.394 57.1704 226.801 56.446 226.801 55.1289V48.1265H223.838V55.6338C223.838 58.0923 225.243 59.6948 227.745 59.6948C229.326 59.6948 230.204 59.1021 230.972 58.0704H231.038V59.3874H233.913Z" fill="#FCFFF4"/>
<path d="M235.844 59.3876H238.829V52.8462C238.829 51.3535 239.641 50.3876 240.849 50.3876C241.946 50.3876 242.583 51.0462 242.583 52.3193V59.3876H245.568V52.8462C245.568 51.3535 246.336 50.3876 247.588 50.3876C248.685 50.3876 249.322 51.0462 249.322 52.3193V59.3876H252.307V51.8145C252.307 49.3559 250.968 47.8193 248.597 47.8193C247.171 47.8193 245.985 48.5657 245.217 49.7949H245.173C244.624 48.6096 243.483 47.8193 242.056 47.8193C240.497 47.8193 239.4 48.6096 238.785 49.6413H238.719V48.1267H235.844V59.3876Z" fill="#FCFFF4"/>
<path d="M120.451 59.3875H123.437V43.6924H120.451V59.3875Z" fill="#FCFFF4"/>
<path d="M130.736 59.7169C134.227 59.7169 136.619 57.1267 136.619 53.7681C136.619 50.4096 134.227 47.8193 130.736 47.8193C127.246 47.8193 124.854 50.4096 124.854 53.7681C124.854 57.1267 127.246 59.7169 130.736 59.7169ZM130.736 57.434C128.893 57.434 127.883 55.9632 127.883 53.7681C127.883 51.573 128.893 50.0803 130.736 50.0803C132.558 50.0803 133.59 51.573 133.59 53.7681C133.59 55.9632 132.558 57.434 130.736 57.434Z" fill="#FCFFF4"/>
<path d="M142.969 63.2291C144.637 63.2291 146.086 62.834 147.03 61.9559C147.864 61.1876 148.369 60.112 148.369 58.5315V48.1267H145.493V49.312H145.449C144.769 48.3681 143.737 47.8193 142.332 47.8193C139.478 47.8193 137.459 49.9706 137.459 53.3291C137.459 56.7315 139.918 58.7071 142.42 58.7071C143.847 58.7071 144.703 58.1364 145.361 57.3901H145.427V58.6193C145.427 60.1559 144.615 60.9681 142.925 60.9681C141.542 60.9681 140.905 60.4193 140.664 59.7169H137.7C138.008 61.912 139.896 63.2291 142.969 63.2291ZM142.925 56.3145C141.388 56.3145 140.378 55.1949 140.378 53.2852C140.378 51.3974 141.388 50.212 142.903 50.212C144.703 50.212 145.581 51.6169 145.581 53.2632C145.581 54.9315 144.813 56.3145 142.925 56.3145Z" fill="#FCFFF4"/>
<path d="M155.625 59.7169C159.115 59.7169 161.508 57.1267 161.508 53.7681C161.508 50.4096 159.115 47.8193 155.625 47.8193C152.135 47.8193 149.742 50.4096 149.742 53.7681C149.742 57.1267 152.135 59.7169 155.625 59.7169ZM155.625 57.434C153.781 57.434 152.771 55.9632 152.771 53.7681C152.771 51.573 153.781 50.0803 155.625 50.0803C157.447 50.0803 158.479 51.573 158.479 53.7681C158.479 55.9632 157.447 57.434 155.625 57.434Z" fill="#FCFFF4"/>
<path d="M252.174 45.6681C252.174 45.1629 252.583 44.7534 253.088 44.7534H254.918C255.423 44.7534 255.832 45.1629 255.832 45.6681C255.832 46.1732 255.423 46.5827 254.918 46.5827H253.088C252.583 46.5827 252.174 46.1732 252.174 45.6681Z" fill="#FCFFF4"/>
</g>
<defs>
<clipPath id="clip0_484_427">
<rect width="136.098" height="30" fill="white" transform="translate(119.951 38.5)"/>
</clipPath>
</defs>
</svg>
