<svg width="352" height="108" viewBox="0 0 352 108" fill="none" xmlns="http://www.w3.org/2000/svg">
<g clip-path="url(#clip0_484_382)">
<path d="M134.153 60.6943H142.148L122.343 40.8887H114.348L134.153 60.6943Z" fill="#FCFFF4"/>
<path d="M126.449 40.8887L145.541 59.9809V40.8887H140.375V46.9164L134.347 40.8887L126.449 40.8887Z" fill="#FCFFF4"/>
<path d="M111 41.5518V60.6942H116.167V54.6664L122.194 60.6942H130.142L111 41.5518Z" fill="#FCFFF4"/>
<path d="M158.011 57.7165H162.64V60.4445H154.477V45.9365H158.011V57.7165Z" fill="#FCFFF4"/>
<path d="M168.954 60.6098C167.824 60.6098 166.805 60.3687 165.895 59.8864C165 59.4042 164.29 58.7153 163.767 57.8198C163.257 56.9242 163.002 55.8771 163.002 54.6784C163.002 53.4936 163.264 52.4533 163.787 51.5578C164.311 50.6484 165.027 49.9526 165.937 49.4704C166.846 48.9882 167.865 48.7471 168.995 48.7471C170.125 48.7471 171.145 48.9882 172.054 49.4704C172.963 49.9526 173.68 50.6484 174.203 51.5578C174.727 52.4533 174.989 53.4936 174.989 54.6784C174.989 55.8633 174.72 56.9104 174.183 57.8198C173.659 58.7153 172.936 59.4042 172.013 59.8864C171.103 60.3687 170.084 60.6098 168.954 60.6098ZM168.954 57.5511C169.629 57.5511 170.201 57.3031 170.669 56.8071C171.151 56.3111 171.393 55.6016 171.393 54.6784C171.393 53.7553 171.158 53.0458 170.69 52.5498C170.235 52.0538 169.67 51.8058 168.995 51.8058C168.306 51.8058 167.735 52.0538 167.28 52.5498C166.825 53.032 166.598 53.7416 166.598 54.6784C166.598 55.6016 166.818 56.3111 167.259 56.8071C167.714 57.3031 168.279 57.5511 168.954 57.5511Z" fill="#FCFFF4"/>
<path d="M180.625 48.7471C181.438 48.7471 182.148 48.9124 182.754 49.2431C183.374 49.5737 183.849 50.0078 184.18 50.5451V48.9124H187.714V60.4238C187.714 61.4847 187.5 62.4422 187.073 63.2964C186.66 64.1644 186.019 64.8533 185.151 65.3631C184.297 65.8729 183.229 66.1278 181.948 66.1278C180.239 66.1278 178.855 65.7213 177.794 64.9084C176.733 64.1093 176.127 63.0209 175.975 61.6431H179.468C179.578 62.084 179.84 62.4284 180.253 62.6764C180.666 62.9382 181.176 63.0691 181.782 63.0691C182.513 63.0691 183.091 62.8556 183.518 62.4284C183.959 62.0151 184.18 61.3469 184.18 60.4238V58.7911C183.835 59.3284 183.36 59.7693 182.754 60.1138C182.148 60.4444 181.438 60.6098 180.625 60.6098C179.674 60.6098 178.813 60.3687 178.042 59.8864C177.27 59.3904 176.657 58.6947 176.202 57.7991C175.762 56.8898 175.541 55.8427 175.541 54.6578C175.541 53.4729 175.762 52.4327 176.202 51.5371C176.657 50.6416 177.27 49.9526 178.042 49.4704C178.813 48.9882 179.674 48.7471 180.625 48.7471ZM184.18 54.6784C184.18 53.7967 183.932 53.1009 183.436 52.5911C182.954 52.0813 182.361 51.8264 181.658 51.8264C180.956 51.8264 180.356 52.0813 179.86 52.5911C179.378 53.0871 179.137 53.776 179.137 54.6578C179.137 55.5396 179.378 56.2422 179.86 56.7658C180.356 57.2756 180.956 57.5304 181.658 57.5304C182.361 57.5304 182.954 57.2756 183.436 56.7658C183.932 56.256 184.18 55.5602 184.18 54.6784Z" fill="#FCFFF4"/>
<path d="M194.899 60.6098C193.769 60.6098 192.75 60.3687 191.841 59.8864C190.945 59.4042 190.235 58.7153 189.712 57.8198C189.202 56.9242 188.947 55.8771 188.947 54.6784C188.947 53.4936 189.209 52.4533 189.733 51.5578C190.256 50.6484 190.973 49.9526 191.882 49.4704C192.791 48.9882 193.811 48.7471 194.941 48.7471C196.07 48.7471 197.09 48.9882 197.999 49.4704C198.909 49.9526 199.625 50.6484 200.149 51.5578C200.672 52.4533 200.934 53.4936 200.934 54.6784C200.934 55.8633 200.665 56.9104 200.128 57.8198C199.604 58.7153 198.881 59.4042 197.958 59.8864C197.049 60.3687 196.029 60.6098 194.899 60.6098ZM194.899 57.5511C195.574 57.5511 196.146 57.3031 196.615 56.8071C197.097 56.3111 197.338 55.6016 197.338 54.6784C197.338 53.7553 197.104 53.0458 196.635 52.5498C196.181 52.0538 195.616 51.8058 194.941 51.8058C194.252 51.8058 193.68 52.0538 193.225 52.5498C192.771 53.032 192.543 53.7416 192.543 54.6784C192.543 55.6016 192.764 56.3111 193.205 56.8071C193.659 57.3031 194.224 57.5511 194.899 57.5511Z" fill="#FCFFF4"/>
<path d="M203.967 47.714C203.347 47.714 202.838 47.5348 202.438 47.1766C202.052 46.8046 201.859 46.35 201.859 45.8126C201.859 45.2615 202.052 44.8068 202.438 44.4486C202.838 44.0766 203.347 43.8906 203.967 43.8906C204.574 43.8906 205.07 44.0766 205.455 44.4486C205.855 44.8068 206.055 45.2615 206.055 45.8126C206.055 46.35 205.855 46.8046 205.455 47.1766C205.07 47.5348 204.574 47.714 203.967 47.714ZM205.724 48.9126V60.4446H202.19V48.9126H205.724Z" fill="#FCFFF4"/>
<path d="M211.198 50.5451C211.543 50.0078 212.018 49.5737 212.624 49.2431C213.23 48.9124 213.94 48.7471 214.753 48.7471C215.704 48.7471 216.565 48.9882 217.336 49.4704C218.108 49.9526 218.714 50.6416 219.155 51.5371C219.61 52.4327 219.837 53.4729 219.837 54.6578C219.837 55.8427 219.61 56.8898 219.155 57.7991C218.714 58.6947 218.108 59.3904 217.336 59.8864C216.565 60.3687 215.704 60.6098 214.753 60.6098C213.954 60.6098 213.244 60.4444 212.624 60.1138C212.018 59.7831 211.543 59.356 211.198 58.8324V65.9418H207.664V48.9124H211.198V50.5451ZM216.241 54.6578C216.241 53.776 215.993 53.0871 215.497 52.5911C215.015 52.0813 214.415 51.8264 213.699 51.8264C212.996 51.8264 212.397 52.0813 211.901 52.5911C211.419 53.1009 211.178 53.7967 211.178 54.6784C211.178 55.5602 211.419 56.256 211.901 56.7658C212.397 57.2756 212.996 57.5304 213.699 57.5304C214.402 57.5304 215.001 57.2756 215.497 56.7658C215.993 56.2422 216.241 55.5396 216.241 54.6578Z" fill="#FCFFF4"/>
<path d="M225.762 60.6098C224.756 60.6098 223.861 60.4376 223.076 60.0931C222.29 59.7487 221.67 59.2802 221.216 58.6878C220.761 58.0816 220.506 57.4064 220.451 56.6624H223.944C223.985 57.062 224.171 57.3858 224.502 57.6338C224.832 57.8818 225.239 58.0058 225.721 58.0058C226.162 58.0058 226.499 57.9231 226.734 57.7578C226.982 57.5787 227.106 57.3513 227.106 57.0758C227.106 56.7451 226.933 56.504 226.589 56.3524C226.244 56.1871 225.686 56.008 224.915 55.8151C224.088 55.6222 223.399 55.4224 222.848 55.2158C222.297 54.9953 221.822 54.6578 221.422 54.2031C221.023 53.7347 220.823 53.1078 220.823 52.3224C220.823 51.6611 221.002 51.0618 221.36 50.5244C221.732 49.9733 222.27 49.5393 222.972 49.2224C223.689 48.9055 224.536 48.7471 225.514 48.7471C226.961 48.7471 228.098 49.1053 228.924 49.8217C229.765 50.5382 230.247 51.4889 230.371 52.6738H227.106C227.05 52.2742 226.871 51.9573 226.568 51.7231C226.279 51.4889 225.893 51.3718 225.411 51.3718C224.998 51.3718 224.681 51.4544 224.46 51.6198C224.24 51.7713 224.13 51.9849 224.13 52.2604C224.13 52.5911 224.302 52.8391 224.646 53.0044C225.004 53.1698 225.556 53.3351 226.3 53.5004C227.154 53.7209 227.85 53.9413 228.387 54.1618C228.924 54.3684 229.393 54.7129 229.792 55.1951C230.206 55.6636 230.419 56.2973 230.433 57.0964C230.433 57.7716 230.24 58.3778 229.854 58.9151C229.482 59.4387 228.938 59.852 228.222 60.1551C227.519 60.4582 226.699 60.6098 225.762 60.6098Z" fill="#FCFFF4"/>
<path d="M243.361 48.9126V60.4446H239.827V58.874C239.469 59.3838 238.98 59.7971 238.36 60.114C237.754 60.4171 237.079 60.5686 236.335 60.5686C235.453 60.5686 234.674 60.3758 233.999 59.99C233.324 59.5904 232.801 59.0186 232.429 58.2746C232.057 57.5306 231.871 56.6558 231.871 55.65V48.9126H235.384V55.1746C235.384 55.9462 235.584 56.5455 235.983 56.9726C236.383 57.3998 236.92 57.6133 237.595 57.6133C238.284 57.6133 238.828 57.3998 239.228 56.9726C239.628 56.5455 239.827 55.9462 239.827 55.1746V48.9126H243.361Z" fill="#FCFFF4"/>
<path d="M259.995 48.7881C261.428 48.7881 262.565 49.2221 263.405 50.09C264.26 50.958 264.687 52.1636 264.687 53.7067V60.444H261.173V54.182C261.173 53.438 260.974 52.8663 260.574 52.4667C260.188 52.0534 259.651 51.8467 258.962 51.8467C258.273 51.8467 257.729 52.0534 257.329 52.4667C256.944 52.8663 256.751 53.438 256.751 54.182V60.444H253.237V54.182C253.237 53.438 253.038 52.8663 252.638 52.4667C252.252 52.0534 251.715 51.8467 251.026 51.8467C250.337 51.8467 249.793 52.0534 249.393 52.4667C249.008 52.8663 248.815 53.438 248.815 54.182V60.444H245.281V48.9121H248.815V50.3587C249.173 49.8765 249.641 49.4976 250.22 49.2221C250.799 48.9328 251.453 48.7881 252.183 48.7881C253.051 48.7881 253.823 48.9741 254.498 49.3461C255.187 49.7181 255.724 50.2485 256.11 50.9374C256.51 50.3036 257.054 49.787 257.743 49.3874C258.432 48.9879 259.183 48.7881 259.995 48.7881Z" fill="#FCFFF4"/>
</g>
<defs>
<clipPath id="clip0_484_382">
<rect width="154" height="27" fill="white" transform="translate(111 40)"/>
</clipPath>
</defs>
</svg>
