<svg width="352" height="108" viewBox="0 0 352 108" fill="none" xmlns="http://www.w3.org/2000/svg">
<g clip-path="url(#clip0_484_326)">
<path d="M146.23 61.1999H155.313V58.6138H149V46.5381H146.23V61.1999Z" fill="#FCFFF4"/>
<path d="M160.768 61.5052C161.868 61.5052 162.835 61.2608 163.67 60.7721C164.512 60.2766 165.167 59.5944 165.635 58.7256C166.11 57.85 166.348 56.8419 166.348 55.7016C166.348 54.568 166.114 53.5668 165.645 52.6979C165.177 51.8223 164.522 51.1367 163.68 50.6412C162.845 50.1457 161.875 49.8979 160.768 49.8979C159.682 49.8979 158.722 50.1423 157.887 50.6311C157.052 51.1198 156.397 51.8019 155.922 52.6776C155.447 53.5464 155.209 54.5544 155.209 55.7016C155.209 56.8351 155.44 57.8398 155.901 58.7154C156.37 59.5843 157.021 60.2664 157.856 60.7619C158.691 61.2575 159.662 61.5052 160.768 61.5052ZM160.768 58.9191C159.906 58.9191 159.251 58.6306 158.803 58.0536C158.362 57.4699 158.141 56.6859 158.141 55.7016C158.141 54.7445 158.352 53.9707 158.773 53.3801C159.2 52.7828 159.865 52.4841 160.768 52.4841C161.644 52.4841 162.302 52.776 162.744 53.3598C163.192 53.9436 163.416 54.7241 163.416 55.7016C163.416 56.6451 163.195 57.4189 162.754 58.0231C162.319 58.6203 161.657 58.9191 160.768 58.9191Z" fill="#FCFFF4"/>
<path d="M171.826 61.5052C172.342 61.5052 172.817 61.4441 173.252 61.3219C173.693 61.1998 174.094 61.0267 174.453 60.8027V61.9125C174.467 62.3198 174.362 62.6591 174.138 62.9307C173.92 63.209 173.629 63.416 173.262 63.5518C172.895 63.6943 172.505 63.7656 172.091 63.7656C171.704 63.7656 171.344 63.6807 171.012 63.5111C170.686 63.3414 170.435 63.0936 170.258 62.7678L167.693 64.0099C168.113 64.7227 168.714 65.2963 169.495 65.7307C170.275 66.1719 171.134 66.3925 172.071 66.3925C172.879 66.3925 173.629 66.2839 174.321 66.0667C175.013 65.8563 175.597 65.5339 176.072 65.0994C176.554 64.665 176.883 64.1118 177.06 63.4398C177.121 63.2022 177.162 62.9612 177.182 62.7168C177.209 62.4793 177.223 62.2247 177.223 61.9532V50.2034H174.799V50.8143C174.426 50.5224 174.002 50.2984 173.527 50.1423C173.058 49.9794 172.539 49.8979 171.969 49.8979C170.917 49.8979 170 50.1491 169.22 50.6514C168.439 51.1537 167.832 51.8427 167.397 52.7183C166.97 53.5871 166.756 54.5816 166.756 55.7016C166.756 56.8012 166.966 57.7888 167.387 58.6645C167.815 59.5401 168.409 60.2325 169.169 60.7416C169.929 61.2507 170.815 61.5052 171.826 61.5052ZM172.274 59.0412C171.677 59.0412 171.188 58.8919 170.808 58.5932C170.428 58.2946 170.146 57.8941 169.963 57.3918C169.78 56.8827 169.688 56.3193 169.688 55.7016C169.688 55.0907 169.783 54.5341 169.973 54.0318C170.163 53.5227 170.455 53.1188 170.849 52.8201C171.249 52.5147 171.758 52.3619 172.376 52.3619C173.245 52.3619 173.866 52.6708 174.239 53.2885C174.613 53.8994 174.799 54.7038 174.799 55.7016C174.799 56.6994 174.609 57.5071 174.229 58.1248C173.856 58.7358 173.204 59.0412 172.274 59.0412Z" fill="#FCFFF4"/>
<path d="M183.8 61.5057C184.899 61.5057 185.866 61.2613 186.701 60.7726C187.543 60.2771 188.198 59.5949 188.666 58.7261C189.141 57.8504 189.379 56.8424 189.379 55.7021C189.379 54.5685 189.145 53.5673 188.676 52.6984C188.208 51.8228 187.553 51.1372 186.712 50.6417C185.877 50.1462 184.906 49.8984 183.8 49.8984C182.713 49.8984 181.753 50.1428 180.918 50.6316C180.083 51.1203 179.428 51.8024 178.953 52.6781C178.478 53.5469 178.24 54.5549 178.24 55.7021C178.24 56.8356 178.471 57.8403 178.933 58.7159C179.401 59.5848 180.053 60.2669 180.888 60.7624C181.722 61.258 182.693 61.5057 183.8 61.5057ZM183.8 58.9196C182.937 58.9196 182.282 58.6311 181.834 58.0541C181.393 57.4704 181.173 56.6864 181.173 55.7021C181.173 54.745 181.383 53.9712 181.804 53.3806C182.232 52.7833 182.897 52.4846 183.8 52.4846C184.675 52.4846 185.334 52.7765 185.775 53.3603C186.223 53.944 186.447 54.7246 186.447 55.7021C186.447 56.6456 186.226 57.4194 185.785 58.0236C185.351 58.6208 184.689 58.9196 183.8 58.9196Z" fill="#FCFFF4"/>
<path d="M190.6 48.676H193.369V46.2324H190.6V48.676ZM190.6 61.1997H193.369V50.2033H190.6V61.1997Z" fill="#FCFFF4"/>
<path d="M195.18 66.0876H197.969V60.8032C198.329 61.0272 198.726 61.2003 199.16 61.3224C199.602 61.4446 200.08 61.5057 200.596 61.5057C201.608 61.5057 202.494 61.2512 203.254 60.7421C204.014 60.233 204.604 59.5406 205.025 58.665C205.453 57.7893 205.667 56.8017 205.667 55.7021C205.667 54.5821 205.45 53.5876 205.016 52.7188C204.588 51.8432 203.984 51.1542 203.203 50.6519C202.422 50.1496 201.506 49.8984 200.454 49.8984C199.884 49.8984 199.361 49.9799 198.886 50.1428C198.417 50.2989 197.996 50.5229 197.624 50.8148V50.2039H195.18V66.0876ZM200.148 59.0417C199.225 59.0417 198.574 58.7363 198.193 58.1253C197.813 57.5076 197.624 56.6999 197.624 55.7021C197.624 54.7043 197.81 53.8999 198.184 53.289C198.564 52.6713 199.184 52.3624 200.047 52.3624C200.664 52.3624 201.17 52.5152 201.564 52.8206C201.964 53.1193 202.26 53.5232 202.449 54.0323C202.64 54.5346 202.735 55.0912 202.735 55.7021C202.735 56.3198 202.643 56.8832 202.46 57.3923C202.276 57.8946 201.995 58.2951 201.615 58.5937C201.235 58.8924 200.746 59.0417 200.148 59.0417Z" fill="#FCFFF4"/>
<path d="M210.685 61.5057C212.124 61.5057 213.251 61.1833 214.065 60.5384C214.88 59.8936 215.287 59.0078 215.287 57.881C215.287 57.0257 215.022 56.3504 214.493 55.8548C213.97 55.3593 213.081 54.9486 211.825 54.6228C210.97 54.4056 210.332 54.2291 209.911 54.0933C209.497 53.9576 209.222 53.8252 209.086 53.6963C208.957 53.5673 208.893 53.4078 208.893 53.2177C208.893 52.8987 209.045 52.6544 209.351 52.4846C209.664 52.3149 210.074 52.2471 210.583 52.281C211.662 52.3624 212.253 52.824 212.355 53.6657L215.185 53.1566C215.043 52.1588 214.554 51.368 213.719 50.7843C212.885 50.1937 211.819 49.8984 210.522 49.8984C209.192 49.8984 208.129 50.2107 207.335 50.8352C206.541 51.4596 206.144 52.3013 206.144 53.3603C206.144 54.202 206.419 54.8672 206.969 55.3559C207.518 55.8379 208.465 56.2519 209.809 56.5981C210.604 56.8085 211.187 56.9782 211.561 57.1072C211.941 57.2361 212.185 57.3685 212.293 57.5043C212.402 57.6332 212.457 57.8064 212.457 58.0236C212.457 58.3697 212.321 58.6412 212.049 58.8381C211.778 59.0281 211.391 59.1232 210.889 59.1232C210.277 59.1232 209.772 58.9772 209.372 58.6853C208.978 58.3935 208.723 57.9896 208.608 57.4737L205.777 57.9013C205.961 59.0485 206.477 59.9377 207.325 60.569C208.181 61.1935 209.301 61.5057 210.685 61.5057Z" fill="#FCFFF4"/>
<path d="M220.394 61.5259C221.189 61.5259 221.881 61.3935 222.472 61.1287C223.062 60.864 223.558 60.5111 223.958 60.0699V61.2H226.402V50.2036H223.612V55.7833C223.612 56.4621 223.534 57.0119 223.378 57.4327C223.229 57.8468 223.035 58.1624 222.798 58.3796C222.56 58.5901 222.306 58.7326 222.034 58.8073C221.762 58.8819 221.508 58.9193 221.27 58.9193C220.68 58.9193 220.222 58.7869 219.896 58.5222C219.577 58.2575 219.346 57.9283 219.203 57.5346C219.061 57.1408 218.976 56.7506 218.949 56.3636C218.922 55.9699 218.908 55.6475 218.908 55.3963V50.2036H216.098V56.3739C216.098 56.5571 216.111 56.849 216.138 57.2495C216.166 57.6499 216.244 58.0946 216.373 58.5833C216.502 59.0652 216.715 59.5302 217.014 59.9782C217.32 60.4262 217.744 60.7961 218.287 61.088C218.83 61.3799 219.533 61.5259 220.394 61.5259Z" fill="#FCFFF4"/>
<path d="M228.008 61.2001H230.797V54.5411C230.797 53.9099 230.97 53.3974 231.317 53.0037C231.669 52.6032 232.134 52.403 232.712 52.403C233.316 52.403 233.788 52.6066 234.127 53.0139C234.473 53.4144 234.646 53.9778 234.646 54.7041V61.2001H237.416V54.5411C237.416 53.9099 237.589 53.3974 237.935 53.0037C238.288 52.6032 238.753 52.403 239.329 52.403C239.934 52.403 240.405 52.6066 240.745 53.0139C241.091 53.4144 241.265 53.9778 241.265 54.7041V61.2001H244.033V53.971C244.033 52.7695 243.711 51.7989 243.066 51.059C242.429 50.3123 241.481 49.939 240.225 49.939C239.52 49.939 238.872 50.0917 238.281 50.3971C237.69 50.7026 237.219 51.1201 236.865 51.6495C236.581 51.1337 236.173 50.7196 235.644 50.4074C235.114 50.0951 234.456 49.939 233.669 49.939C233.003 49.939 232.393 50.0714 231.836 50.3361C231.279 50.594 230.817 50.9504 230.451 51.4051V50.2037H228.008V61.2001Z" fill="#FCFFF4"/>
<path d="M123 38C114.163 38 107 45.1634 107 54C115.837 54 123 46.8366 123 38Z" fill="#FCFFF4"/>
<path d="M123 70C131.837 70 139 62.8366 139 54C130.163 54 123 61.1634 123 70Z" fill="#FCFFF4"/>
<path d="M123 38C131.837 38 139 45.1634 139 54C130.163 54 123 46.8366 123 38Z" fill="#FCFFF4"/>
<path d="M123 70C114.163 70 107 62.8366 107 54C115.837 54 123 61.1634 123 70Z" fill="#FCFFF4"/>
</g>
<defs>
<clipPath id="clip0_484_326">
<rect width="137.6" height="32" fill="white" transform="translate(107 38)"/>
</clipPath>
</defs>
</svg>
