<svg width="58" height="32" viewBox="0 0 58 32" fill="none" xmlns="http://www.w3.org/2000/svg">
<path d="M58 1.67578H45.2935V5.91127H53.341V13.7469H46.9454V17.9824H53.341V27.0887H45.2935V31.3242H58V1.67578Z" fill="#FCFFF4"/>
<path d="M29.5469 1.67578H34.2483L37.2978 24.6745H37.3825L40.4321 1.67578H44.7099L40.2203 31.3242H34.0365L29.5469 1.67578Z" fill="#FCFFF4"/>
<path d="M16.2363 1.67578H28.9428V5.91127H20.8954V13.7469H27.2909V17.9824H20.8954V27.0887H28.9428V31.3242H16.2363V1.67578Z" fill="#FCFFF4"/>
<path d="M0 1.67578H6.90384C9.30395 1.67578 11.0546 2.24051 12.1558 3.36998C13.2571 4.4712 13.8077 6.17951 13.8077 8.49491V10.3162C13.8077 13.394 12.7912 15.3423 10.7581 16.1611V16.2459C11.8876 16.5847 12.6782 17.2765 13.13 18.3212C13.61 19.366 13.85 20.7637 13.85 22.5144V27.724C13.85 28.5711 13.8783 29.2629 13.9347 29.7994C13.9912 30.3077 14.1324 30.8159 14.3583 31.3242H9.61455C9.44513 30.8442 9.33219 30.3924 9.27571 29.9688C9.21924 29.5453 9.191 28.7829 9.191 27.6817V22.2602C9.191 20.9049 8.96511 19.959 8.51333 19.4225C8.08978 18.886 7.34151 18.6177 6.26852 18.6177H4.65903V31.3242H0V1.67578ZM6.35323 14.3822C7.28503 14.3822 7.97683 14.1422 8.42862 13.6622C8.90864 13.1822 9.14865 12.3774 9.14865 11.248V8.96082C9.14865 7.88783 8.95099 7.11132 8.55568 6.6313C8.1886 6.15128 7.59564 5.91127 6.77678 5.91127H4.65903V14.3822H6.35323Z" fill="#FCFFF4"/>
</svg>
