<svg width="352" height="108" viewBox="0 0 352 108" fill="none" xmlns="http://www.w3.org/2000/svg">
<g clip-path="url(#clip0_484_352)">
<path d="M153.277 61.9525H165.229V58.3525H157.525V44.7925H153.277V61.9525Z" fill="#FCFFF4"/>
<path d="M172.31 59.5526C170.606 59.5526 169.718 58.0646 169.718 55.8326C169.718 53.6006 170.606 52.0886 172.31 52.0886C174.014 52.0886 174.926 53.6006 174.926 55.8326C174.926 58.0646 174.014 59.5526 172.31 59.5526ZM172.334 62.3366C176.294 62.3366 178.886 59.5286 178.886 55.8326C178.886 52.1366 176.294 49.3286 172.334 49.3286C168.398 49.3286 165.758 52.1366 165.758 55.8326C165.758 59.5286 168.398 62.3366 172.334 62.3366Z" fill="#FCFFF4"/>
<path d="M185.741 66.2002C187.565 66.2002 189.173 65.7922 190.253 64.8322C191.237 63.9442 191.885 62.6002 191.885 60.7522V49.6642H188.141V50.9842H188.093C187.373 49.9522 186.269 49.3042 184.637 49.3042C181.589 49.3042 179.477 51.8482 179.477 55.4482C179.477 59.2162 182.045 61.2802 184.805 61.2802C186.293 61.2802 187.229 60.6802 187.949 59.8642H188.045V61.0882C188.045 62.5762 187.349 63.4402 185.693 63.4402C184.397 63.4402 183.749 62.8882 183.533 62.2402H179.741C180.125 64.8082 182.357 66.2002 185.741 66.2002ZM185.717 58.3762C184.253 58.3762 183.293 57.1762 183.293 55.3282C183.293 53.4562 184.253 52.2562 185.717 52.2562C187.349 52.2562 188.213 53.6482 188.213 55.3042C188.213 57.0322 187.421 58.3762 185.717 58.3762Z" fill="#FCFFF4"/>
<path d="M199.583 59.5526C197.879 59.5526 196.991 58.0646 196.991 55.8326C196.991 53.6006 197.879 52.0886 199.583 52.0886C201.287 52.0886 202.199 53.6006 202.199 55.8326C202.199 58.0646 201.287 59.5526 199.583 59.5526ZM199.607 62.3366C203.567 62.3366 206.159 59.5286 206.159 55.8326C206.159 52.1366 203.567 49.3286 199.607 49.3286C195.671 49.3286 193.031 52.1366 193.031 55.8326C193.031 59.5286 195.671 62.3366 199.607 62.3366Z" fill="#FCFFF4"/>
<path d="M207.301 61.9525H211.213V49.6645H207.301V61.9525ZM207.301 47.9605H211.213V44.7925H207.301V47.9605Z" fill="#FCFFF4"/>
<path d="M212.91 66.0082H216.822V60.6802H216.87C217.638 61.7122 218.766 62.3362 220.35 62.3362C223.566 62.3362 225.702 59.7922 225.702 55.8082C225.702 52.1122 223.71 49.3042 220.446 49.3042C218.766 49.3042 217.566 50.0482 216.726 51.1522H216.654V49.6642H212.91V66.0082ZM219.342 59.3122C217.662 59.3122 216.702 57.9442 216.702 55.9522C216.702 53.9602 217.566 52.4482 219.27 52.4482C220.95 52.4482 221.742 53.8402 221.742 55.9522C221.742 58.0402 220.83 59.3122 219.342 59.3122Z" fill="#FCFFF4"/>
<path d="M232.072 62.3362C235.288 62.3362 237.664 60.9442 237.664 58.2562C237.664 55.1122 235.12 54.5602 232.96 54.2002C231.4 53.9122 230.008 53.7922 230.008 52.9282C230.008 52.1602 230.752 51.8002 231.712 51.8002C232.792 51.8002 233.536 52.1362 233.68 53.2402H237.28C237.088 50.8162 235.216 49.3042 231.736 49.3042C228.832 49.3042 226.432 50.6482 226.432 53.2402C226.432 56.1202 228.712 56.6962 230.848 57.0562C232.48 57.3442 233.968 57.4642 233.968 58.5682C233.968 59.3602 233.224 59.7922 232.048 59.7922C230.752 59.7922 229.936 59.1922 229.792 57.9682H226.096C226.216 60.6802 228.472 62.3362 232.072 62.3362Z" fill="#FCFFF4"/>
<path d="M242.978 62.3126C244.682 62.3126 245.762 61.6405 246.65 60.4405H246.722V61.9526H250.466V49.6646H246.554V56.5286C246.554 57.9926 245.738 59.0006 244.394 59.0006C243.146 59.0006 242.546 58.2565 242.546 56.9125V49.6646H238.658V57.7285C238.658 60.4646 240.146 62.3126 242.978 62.3126Z" fill="#FCFFF4"/>
<path d="M252.168 61.9522H256.08V55.0642C256.08 53.6002 256.8 52.5682 258.024 52.5682C259.2 52.5682 259.752 53.3362 259.752 54.6562V61.9522H263.664V55.0642C263.664 53.6002 264.36 52.5682 265.608 52.5682C266.784 52.5682 267.336 53.3362 267.336 54.6562V61.9522H271.248V53.9602C271.248 51.2002 269.856 49.3042 267.072 49.3042C265.488 49.3042 264.168 49.9762 263.208 51.4642H263.16C262.536 50.1442 261.312 49.3042 259.704 49.3042C257.928 49.3042 256.752 50.1442 255.984 51.4162H255.912V49.6642H252.168V61.9522Z" fill="#FCFFF4"/>
<path d="M129.411 34.9767L125.478 33.9229L122.163 46.2924L119.171 35.1251L115.238 36.179L118.471 48.2444L110.418 40.1918L107.539 43.071L116.372 51.9038L105.372 48.9564L104.318 52.8894L116.337 56.1098C116.199 55.5163 116.127 54.8979 116.127 54.2625C116.127 49.7649 119.773 46.1189 124.27 46.1189C128.768 46.1189 132.414 49.7649 132.414 54.2625C132.414 54.8938 132.342 55.5084 132.206 56.0984L143.129 59.0251L144.182 55.0921L132.116 51.8589L143.117 48.9113L142.063 44.9783L129.997 48.2113L138.049 40.1588L135.17 37.2796L126.46 45.9898L129.411 34.9767Z" fill="#FCFFF4"/>
<path d="M132.194 56.1445C131.857 57.5701 131.145 58.8508 130.168 59.8769L138.081 67.79L140.96 64.9108L132.194 56.1445Z" fill="#FCFFF4"/>
<path d="M130.088 59.9595C129.1 60.9692 127.85 61.7227 126.449 62.111L129.329 72.857L133.262 71.8031L130.088 59.9595Z" fill="#FCFFF4"/>
<path d="M126.302 62.1503C125.652 62.3174 124.971 62.4062 124.269 62.4062C123.517 62.4062 122.788 62.3042 122.097 62.1133L119.215 72.8691L123.148 73.9229L126.302 62.1503Z" fill="#FCFFF4"/>
<path d="M121.959 62.0739C120.579 61.6663 119.352 60.9032 118.384 59.8906L110.451 67.8231L113.33 70.7023L121.959 62.0739Z" fill="#FCFFF4"/>
<path d="M118.316 59.8205C117.364 58.8015 116.671 57.5379 116.341 56.1343L105.383 59.0706L106.437 63.0036L118.316 59.8205Z" fill="#FCFFF4"/>
</g>
<defs>
<clipPath id="clip0_484_352">
<rect width="168" height="41" fill="white" transform="translate(104 33)"/>
</clipPath>
</defs>
</svg>
