<svg width="352" height="108" viewBox="0 0 352 108" fill="none" xmlns="http://www.w3.org/2000/svg">
<path d="M191.34 73.9838C191.399 67.9259 189.864 62.9997 187.91 62.9805C185.956 62.9615 184.324 67.8569 184.265 73.9146C184.206 79.9725 185.742 84.8989 187.695 84.9179C189.649 84.937 191.281 80.0417 191.34 73.9838Z" fill="#FCFFF4"/>
<path d="M180.01 72.6082C183.335 67.5442 184.707 62.5696 183.074 61.4972C181.441 60.4249 177.421 63.6607 174.096 68.7248C170.771 73.7888 169.399 78.7632 171.032 79.8357C172.665 80.9081 176.685 77.6723 180.01 72.6082Z" fill="#FCFFF4"/>
<path d="M171.209 65.3427C176.744 62.8806 180.587 59.4376 179.793 57.6524C178.999 55.8672 173.868 56.4161 168.333 58.8783C162.798 61.3403 158.954 64.7834 159.748 66.5686C160.542 68.3538 165.673 67.8049 171.209 65.3427Z" fill="#FCFFF4"/>
<path d="M179.13 52.6464C179.427 50.7154 174.814 48.4029 168.827 47.4812C162.839 46.5596 157.744 47.378 157.447 49.309C157.15 51.2401 161.763 53.5524 167.751 54.4741C173.738 55.3957 178.833 54.5773 179.13 52.6464Z" fill="#FCFFF4"/>
<path d="M181.28 48.0462C182.574 46.5823 179.943 42.1432 175.403 38.1314C170.864 34.1195 166.135 32.054 164.841 33.518C163.547 34.982 166.178 39.421 170.718 43.4329C175.257 47.4448 179.986 49.5102 181.28 48.0462Z" fill="#FCFFF4"/>
<path d="M185.558 45.3577C187.438 44.8257 187.625 39.6689 185.975 33.8397C184.326 28.0105 181.465 23.7162 179.585 24.2482C177.705 24.7801 177.518 29.9369 179.168 35.7662C180.817 41.5953 183.678 45.8897 185.558 45.3577Z" fill="#FCFFF4"/>
<path d="M197.184 35.9473C198.949 30.1517 198.864 24.9922 196.994 24.4233C195.125 23.8543 192.18 28.0913 190.416 33.8869C188.652 39.6825 188.737 44.8419 190.606 45.4109C192.475 45.9798 195.42 41.7429 197.184 35.9473Z" fill="#FCFFF4"/>
<path d="M205.492 43.7785C210.109 39.8561 212.826 35.4694 211.561 33.9804C210.296 32.4915 205.528 34.4642 200.911 38.3864C196.294 42.3088 193.577 46.6956 194.842 48.1845C196.106 49.6735 200.875 47.7009 205.492 43.7785Z" fill="#FCFFF4"/>
<path d="M208.238 54.8606C214.243 54.0572 218.901 51.8362 218.642 49.8996C218.383 47.9632 213.305 47.0446 207.3 47.8478C201.296 48.6511 196.638 50.8722 196.897 52.8088C197.156 54.7452 202.234 55.6639 208.238 54.8606Z" fill="#FCFFF4"/>
<path d="M215.985 67.1223C216.814 65.3532 213.039 61.835 207.554 59.2642C202.068 56.6934 196.949 56.0435 196.12 57.8126C195.291 59.5818 199.066 63.1 204.551 65.6708C210.037 68.2415 215.156 68.8915 215.985 67.1223Z" fill="#FCFFF4"/>
<path d="M204.445 80.1752C206.099 79.1353 204.826 74.1346 201.601 69.006C198.377 63.8774 194.422 60.563 192.768 61.6029C191.114 62.6428 192.387 67.6435 195.612 72.7721C198.836 77.9007 202.791 81.2152 204.445 80.1752Z" fill="#FCFFF4"/>
</svg>
