<svg width="352" height="108" viewBox="0 0 352 108" fill="none" xmlns="http://www.w3.org/2000/svg">
<g clip-path="url(#clip0_484_415)">
<path d="M154.277 62.3231H166.229V58.7231H158.525V45.1631H154.277V62.3231Z" fill="#FCFFF4"/>
<path d="M173.31 59.9232C171.606 59.9232 170.718 58.4352 170.718 56.2032C170.718 53.9712 171.606 52.4592 173.31 52.4592C175.014 52.4592 175.926 53.9712 175.926 56.2032C175.926 58.4352 175.014 59.9232 173.31 59.9232ZM173.334 62.7072C177.294 62.7072 179.886 59.8992 179.886 56.2032C179.886 52.5072 177.294 49.6992 173.334 49.6992C169.398 49.6992 166.758 52.5072 166.758 56.2032C166.758 59.8992 169.398 62.7072 173.334 62.7072Z" fill="#FCFFF4"/>
<path d="M186.741 66.5713C188.565 66.5713 190.173 66.1633 191.253 65.2033C192.237 64.3153 192.885 62.9713 192.885 61.1233V50.0353H189.141V51.3553H189.093C188.373 50.3233 187.269 49.6753 185.637 49.6753C182.589 49.6753 180.477 52.2193 180.477 55.8193C180.477 59.5873 183.045 61.6513 185.805 61.6513C187.293 61.6513 188.229 61.0513 188.949 60.2353H189.045V61.4593C189.045 62.9473 188.349 63.8113 186.693 63.8113C185.397 63.8113 184.749 63.2593 184.533 62.6113H180.741C181.125 65.1793 183.357 66.5713 186.741 66.5713ZM186.717 58.7473C185.253 58.7473 184.293 57.5473 184.293 55.6993C184.293 53.8273 185.253 52.6273 186.717 52.6273C188.349 52.6273 189.213 54.0193 189.213 55.6753C189.213 57.4033 188.421 58.7473 186.717 58.7473Z" fill="#FCFFF4"/>
<path d="M200.583 59.9232C198.879 59.9232 197.991 58.4352 197.991 56.2032C197.991 53.9712 198.879 52.4592 200.583 52.4592C202.287 52.4592 203.199 53.9712 203.199 56.2032C203.199 58.4352 202.287 59.9232 200.583 59.9232ZM200.607 62.7072C204.567 62.7072 207.159 59.8992 207.159 56.2032C207.159 52.5072 204.567 49.6992 200.607 49.6992C196.671 49.6992 194.031 52.5072 194.031 56.2032C194.031 59.8992 196.671 62.7072 200.607 62.7072Z" fill="#FCFFF4"/>
<path d="M208.301 62.3231H212.213V50.0351H208.301V62.3231ZM208.301 48.3311H212.213V45.1631H208.301V48.3311Z" fill="#FCFFF4"/>
<path d="M213.91 66.3793H217.822V61.0513H217.87C218.638 62.0833 219.766 62.7073 221.35 62.7073C224.566 62.7073 226.702 60.1633 226.702 56.1793C226.702 52.4833 224.71 49.6753 221.446 49.6753C219.766 49.6753 218.566 50.4193 217.726 51.5233H217.654V50.0353H213.91V66.3793ZM220.342 59.6833C218.662 59.6833 217.702 58.3153 217.702 56.3233C217.702 54.3313 218.566 52.8193 220.27 52.8193C221.95 52.8193 222.742 54.2113 222.742 56.3233C222.742 58.4113 221.83 59.6833 220.342 59.6833Z" fill="#FCFFF4"/>
<path d="M233.072 62.7073C236.288 62.7073 238.664 61.3153 238.664 58.6273C238.664 55.4833 236.12 54.9313 233.96 54.5713C232.4 54.2833 231.008 54.1633 231.008 53.2993C231.008 52.5313 231.752 52.1713 232.712 52.1713C233.792 52.1713 234.536 52.5073 234.68 53.6113H238.28C238.088 51.1873 236.216 49.6753 232.736 49.6753C229.832 49.6753 227.432 51.0193 227.432 53.6113C227.432 56.4913 229.712 57.0673 231.848 57.4273C233.48 57.7153 234.968 57.8353 234.968 58.9393C234.968 59.7313 234.224 60.1633 233.048 60.1633C231.752 60.1633 230.936 59.5633 230.792 58.3393H227.096C227.216 61.0513 229.472 62.7073 233.072 62.7073Z" fill="#FCFFF4"/>
<path d="M243.978 62.6832C245.682 62.6832 246.762 62.0112 247.65 60.8112H247.722V62.3232H251.466V50.0352H247.554V56.8992C247.554 58.3632 246.738 59.3712 245.394 59.3712C244.146 59.3712 243.546 58.6272 243.546 57.2832V50.0352H239.658V58.0992C239.658 60.8352 241.146 62.6832 243.978 62.6832Z" fill="#FCFFF4"/>
<path d="M253.168 62.3233H257.08V55.4353C257.08 53.9713 257.8 52.9393 259.024 52.9393C260.2 52.9393 260.752 53.7073 260.752 55.0273V62.3233H264.664V55.4353C264.664 53.9713 265.36 52.9393 266.608 52.9393C267.784 52.9393 268.336 53.7073 268.336 55.0273V62.3233H272.248V54.3313C272.248 51.5713 270.856 49.6753 268.072 49.6753C266.488 49.6753 265.168 50.3473 264.208 51.8353H264.16C263.536 50.5153 262.312 49.6753 260.704 49.6753C258.928 49.6753 257.752 50.5153 256.984 51.7873H256.912V50.0353H253.168V62.3233Z" fill="#FCFFF4"/>
<path fill-rule="evenodd" clip-rule="evenodd" d="M123.102 73.3232C134.147 73.3232 143.102 64.3689 143.102 53.3232C143.102 42.2775 134.147 33.3232 123.102 33.3232C112.056 33.3232 103.102 42.2775 103.102 53.3232C103.102 64.3689 112.056 73.3232 123.102 73.3232ZM126.189 48.7758C127.893 47.0709 127.893 44.3068 126.189 42.6019C124.484 40.897 121.72 40.897 120.015 42.6019C118.31 44.3068 118.31 47.0709 120.015 48.7758L123.102 51.8627L126.189 48.7758ZM127.649 56.4102C129.354 58.1151 132.118 58.1151 133.823 56.4102C135.528 54.7053 135.528 51.9412 133.823 50.2363C132.118 48.5315 129.354 48.5315 127.649 50.2363L124.562 53.3233L127.649 56.4102ZM126.189 64.0446C127.893 62.3397 127.893 59.5756 126.189 57.8707L123.102 54.7838L120.015 57.8707C118.31 59.5756 118.31 62.3397 120.015 64.0446C121.72 65.7495 124.484 65.7495 126.189 64.0446ZM112.38 56.4102C110.675 54.7053 110.675 51.9412 112.38 50.2363C114.085 48.5315 116.849 48.5315 118.554 50.2363L121.641 53.3233L118.554 56.4102C116.849 58.1151 114.085 58.1151 112.38 56.4102Z" fill="#FCFFF4"/>
</g>
<defs>
<clipPath id="clip0_484_415">
<rect width="170" height="41" fill="white" transform="translate(103 33)"/>
</clipPath>
</defs>
</svg>
