<svg width="352" height="108" viewBox="0 0 352 108" fill="none" xmlns="http://www.w3.org/2000/svg">
<g clip-path="url(#clip0_484_321)">
<path d="M279.394 41.6642L283.568 45.8668C283.714 45.9829 283.822 46.1396 283.878 46.3171C283.963 47.3515 283.18 47.4081 282.38 47.4659C282.034 47.4909 281.685 47.5162 281.402 47.621C279.998 48.0009 278.746 48.8033 277.815 49.9193C276.883 51.0353 276.318 52.4109 276.195 53.8593C276.105 54.0266 275.969 54.1643 275.802 54.2558C275.636 54.3474 275.447 54.3888 275.257 54.3753C275.037 54.3558 274.831 54.2595 274.675 54.1032L273.305 52.7238C273.315 52.8182 273.315 52.9117 273.315 52.9869V53.8968C273.315 53.9543 273.317 54.0097 273.31 54.065C273.301 54.127 273.28 54.1888 273.231 54.2532V54.3377C273.231 54.3808 273.236 54.4209 273.241 54.4616C273.251 54.5449 273.262 54.6307 273.231 54.7505C273.201 54.8622 273.198 54.9925 273.194 55.1088C273.193 55.1779 273.191 55.2421 273.184 55.2945C273.174 55.3672 273.174 55.4448 273.168 55.5223C273.162 55.5949 273.15 55.6674 273.118 55.7354C273.074 55.8306 273.059 55.9215 273.055 56.0139C273.052 56.0581 273.052 56.1026 273.052 56.1482L272.996 56.439L270.867 66.5891L270.698 67.3489L270.632 68.4559L269.694 73.2495L269.544 74H193.625L193.259 73.6341L193.193 73.9531H185.069L180.548 69.4034L180.979 67.3489H178.428L176.842 65.7448C174.875 67.1775 172.493 67.9285 170.06 67.8837C167.444 67.9866 164.894 67.0488 162.968 65.2758L160.501 62.7899L159.966 65.2851C159.901 65.6416 159.816 65.9794 159.722 66.3077L159.638 66.6173L159.497 67.0675C159.486 67.1066 159.47 67.1444 159.45 67.1801C159.311 67.5937 159.145 67.9979 158.953 68.3902C158.958 68.4054 158.958 68.4219 158.953 68.4371C158.928 68.4891 158.9 68.5392 158.869 68.5872C158.727 68.8675 158.571 69.1399 158.4 69.4034C158.368 69.4513 158.34 69.5015 158.315 69.5535L158.212 69.666C157.983 69.9949 157.732 70.3082 157.461 70.6041C157.387 70.6783 157.313 70.748 157.238 70.8164C157.161 70.8864 157.083 70.9551 157.002 71.0262L156.796 71.2232C156.665 71.3313 156.532 71.4356 156.396 71.5361C156.284 71.619 156.17 71.6992 156.054 71.7767C154.121 72.9222 151.891 73.4674 149.647 73.3433C146.552 73.3433 144.075 72.4427 142.508 70.8668L138.099 66.4296C136.338 67.4262 134.344 67.9377 132.321 67.9118C129.713 67.9925 127.178 67.042 125.266 65.2664L122.799 62.7805L122.002 66.6173L121.842 67.3771H113.54L109 62.7992L109.235 61.6923L114.225 37.7242L114.375 36.9737H122.705L122.921 37.1801V36.9737H179.047L179.253 37.1801V36.9737H187.377L191.917 41.5516L191.692 42.6491L191.448 43.8499H193.784L194.15 44.2158C195.178 43.6134 196.345 43.29 197.537 43.2777C198.413 43.2604 199.283 43.4268 200.09 43.7661C200.898 44.1054 201.626 44.61 202.227 45.2476L202.105 45.1069L204.31 47.3302C205.651 44.8068 208.662 43.2777 212.752 43.2777C215.923 43.2777 218.259 44.0844 219.675 45.5478L221.27 47.152L221.805 44.5722L221.964 43.8217H230.097L232.424 46.1576L232.752 44.5816L232.912 43.8311H248.916L249.347 44.2627C250.431 43.6231 251.672 43.2982 252.931 43.3246C253.688 43.295 254.442 43.4336 255.14 43.7305C255.837 44.0273 256.46 44.475 256.964 45.0413C256.938 45.0118 256.913 44.9823 256.888 44.9533C256.843 44.8995 256.798 44.847 256.75 44.7984L257.565 45.6135C258.275 44.8782 259.129 44.2959 260.072 43.9024C261.016 43.5088 262.03 43.3121 263.052 43.3246C263.595 43.2912 264.137 43.3374 264.663 43.4603L263.775 42.5647C263.654 42.4353 263.572 42.2742 263.539 42.1002C263.506 41.9262 263.523 41.7463 263.587 41.5815C263.652 41.4166 263.762 41.2734 263.905 41.1685C264.048 41.0637 264.217 41.0013 264.394 40.9887H265.107C265.299 40.9704 265.49 40.9423 265.679 40.9043C266.676 40.6947 267.614 40.2662 268.425 39.6497C269.237 39.0332 269.901 38.2442 270.37 37.3396C270.411 37.2696 270.448 37.1977 270.482 37.1238V37.077C270.805 36.3822 271.001 35.6358 271.064 34.8724C271.08 34.6352 271.187 34.4131 271.361 34.2512C271.535 34.0892 271.764 33.9994 272.002 34H272.077C272.219 34.0135 272.357 34.0594 272.479 34.1342C272.601 34.209 272.704 34.3107 272.781 34.4315C273.456 35.0882 277.208 38.9062 277.208 38.9062C277.521 39.2424 277.498 39.6789 277.474 40.1205C277.459 40.3935 277.444 40.6686 277.508 40.9231C277.679 40.9537 277.852 40.9769 278.024 40.9926C278.19 41.0075 278.356 41.0157 278.522 41.0169C278.716 41.0209 278.905 41.0854 279.061 41.2014C279.217 41.3173 279.334 41.4791 279.394 41.6642Z" fill="#FCFFF4"/>
<path d="M151.936 44.7507H157.865L154.544 60.5011C153.934 63.4842 152.771 65.1916 151.008 66.4017C149.224 67.4368 147.175 67.926 145.116 67.8088C141.195 67.8088 137.433 66.1672 137.058 62.1803H143.024C143.212 63.1184 144.075 63.6531 145.388 63.6531C147.161 63.6531 147.978 62.5837 148.343 60.9045L148.7 59.169H148.569C148.045 59.7445 147.41 60.2075 146.702 60.53C145.994 60.8525 145.228 61.0278 144.45 61.0452C140.998 61.0452 138.259 58.2966 138.315 54.2722C138.39 49.5818 141.448 44.2535 146.58 44.2535C147.552 44.188 148.523 44.4023 149.378 44.8711C150.232 45.3398 150.934 46.0435 151.402 46.8989H151.505L151.936 44.7507ZM146.842 56.6456C149.122 56.6456 150.388 54.019 150.426 51.7582C150.426 50.2479 149.835 48.7 148.09 48.7C145.707 48.7 144.497 51.3548 144.46 53.6343C144.46 55.1728 145.051 56.6456 146.796 56.6456M213.4 57.1522C213.4 58.1559 212.536 58.5593 211.401 58.5593C209.525 58.5593 208.897 57.6212 208.887 56.3079H202.987C202.884 61.2047 207.255 62.4148 211.139 62.4148C216.101 62.4148 219.319 60.2666 219.385 55.9796C219.385 52.5555 216.467 51.5143 213.597 50.8482C211.392 50.3417 210.426 49.9758 210.435 49.1409C210.445 48.306 211.43 47.9683 212.396 47.9683C213.606 47.9683 214.431 48.3998 214.516 49.5068H220.248C220.182 45.4167 216.495 44.216 212.743 44.216C208.184 44.216 204.629 46.2891 204.572 50.2103C204.572 53.2966 206.655 54.4317 209.797 55.2385C211.814 55.7732 213.418 55.942 213.4 57.1522ZM257.236 47.2929H257.133C256.878 46.3691 256.314 45.5604 255.536 45.0007C254.758 44.4411 253.812 44.1642 252.855 44.216C250.304 44.216 248.747 45.4824 247.274 47.3961H247.171L247.715 44.7507H241.748L238.174 61.8426H244.413L246.289 52.6212C246.72 50.6137 247.743 49.2066 249.291 49.2066C250.839 49.2066 251.045 50.4448 250.726 51.9552L248.662 61.8426H254.9L256.777 52.6212C257.208 50.4824 258.231 49.2066 259.778 49.2066C261.326 49.2066 261.533 50.3792 261.214 51.9552L259.15 61.8426H265.388L267.621 51.6831C268.559 47.3961 267.124 44.1784 263.006 44.1784C261.86 44.1737 260.732 44.4563 259.724 45.0004C258.716 45.5445 257.861 46.3327 257.236 47.2929ZM110.145 61.8426H116.589L121.57 37.8745H115.135L110.145 61.8426ZM129.544 44.2441C133.897 44.2441 138.053 46.6268 137.987 52.0208C137.931 57.9214 133.916 62.3398 127.781 62.3398C123.559 62.3398 119.338 59.9946 119.413 54.6287C119.516 48.8689 123.475 44.2441 129.544 44.2441ZM127.959 58.1559C130.707 58.1559 131.711 54.169 131.711 51.8238C131.711 50.1447 131.195 48.503 129.385 48.503C126.664 48.503 125.736 52.7244 125.736 54.9008C125.736 56.6456 126.223 58.1559 127.996 58.1559M123.719 37.8745L122.781 42.6681H176.899L177.837 37.8745H123.719ZM167.246 44.2441C171.599 44.2441 175.754 46.6268 175.689 52.0208C175.632 57.9214 171.608 62.3398 165.473 62.3398C161.251 62.3398 157.03 59.9946 157.115 54.6287C157.246 48.8689 161.205 44.2441 167.246 44.2441ZM165.689 58.1559C168.437 58.1559 169.441 54.169 169.441 51.8238C169.441 50.1447 168.916 48.503 167.105 48.503C164.394 48.503 163.456 52.7244 163.456 54.9008C163.456 56.6456 163.944 58.1559 165.726 58.1559M180.051 37.8745L179.113 42.6681H185.342L186.28 37.8745H180.051ZM175.06 61.8426H181.298L184.872 44.7507H178.597L175.06 61.8426ZM194.966 62.4148C193.973 62.4853 192.981 62.2778 192.099 61.8155C191.217 61.3532 190.482 60.6544 189.976 59.7976H189.872L187.996 68.4467H181.683L186.749 44.7507H192.677L192.208 47.0302C192.827 46.1882 193.629 45.4975 194.554 45.01C195.478 44.5226 196.501 44.2511 197.546 44.216C201.298 44.216 203.503 47.4336 203.437 51.6175C203.353 56.8801 200.623 62.4148 194.929 62.4148H194.966ZM194.722 49.0565C192.312 49.0565 190.829 52.1428 190.792 54.5162C190.792 56.1672 191.373 58.0058 193.353 58.0058C195.933 58.0058 196.993 54.5912 197.021 52.3116C197.021 50.7638 196.57 49.0565 194.722 49.0565ZM230.792 59.1503H230.895L230.351 61.8614H236.279L239.854 44.7694H233.625L231.636 54.3191C231.233 56.2985 230.013 57.3398 228.475 57.3398C226.936 57.3398 226.598 55.8951 226.908 54.3848L228.925 44.7694H222.696L220.491 55.3229C219.553 59.9195 221.692 62.3961 225.276 62.3961C226.401 62.3851 227.504 62.0776 228.472 61.5044C229.44 60.9312 230.241 60.1127 230.792 59.1315V59.1503ZM264.253 68.5312L265.191 63.7375H191.214L190.276 68.5312H264.253Z" fill="#1A1A1A"/>
<path d="M270.961 49.4409C270.9 49.4362 270.84 49.4193 270.785 49.3912C270.729 49.3632 270.68 49.3245 270.64 49.2774C270.6 49.2303 270.57 49.1758 270.551 49.1169C270.532 49.058 270.525 48.996 270.53 48.9343C270.608 48.0989 270.509 47.2563 270.239 46.4619C269.969 45.6675 269.534 44.939 268.962 44.3244C268.391 43.7097 267.696 43.2227 266.924 42.8952C266.151 42.5677 265.318 42.4071 264.479 42.424C264.355 42.424 264.236 42.3746 264.148 42.2866C264.06 42.1987 264.01 42.0793 264.01 41.9549C264.01 41.8305 264.06 41.7113 264.148 41.6233C264.236 41.5353 264.355 41.4859 264.479 41.4859C264.704 41.5004 264.93 41.5004 265.155 41.4859C266.821 41.3084 268.373 40.5556 269.544 39.3571C270.716 38.1585 271.432 36.5892 271.571 34.9193C271.581 34.8015 271.634 34.6917 271.721 34.6117C271.808 34.5317 271.922 34.4874 272.04 34.4878C272.102 34.4925 272.162 34.5094 272.217 34.5375C272.272 34.5655 272.321 34.6042 272.361 34.6513C272.402 34.6984 272.432 34.7529 272.451 34.8118C272.47 34.8707 272.477 34.9327 272.472 34.9944C272.394 35.829 272.493 36.6708 272.762 37.4645C273.032 38.2583 273.466 38.9862 274.036 39.6007C274.607 40.2152 275.3 40.7025 276.071 41.0305C276.843 41.3586 277.675 41.5202 278.513 41.5047C278.637 41.5047 278.757 41.5541 278.845 41.6421C278.933 41.73 278.982 41.8493 278.982 41.9737C278.982 42.0981 278.933 42.2174 278.845 42.3054C278.757 42.3933 278.637 42.4428 278.513 42.4428C276.731 42.4722 275.022 43.1587 273.715 44.3707C272.408 45.5826 271.594 47.2345 271.431 49.0094C271.421 49.1272 271.368 49.2371 271.281 49.3171C271.194 49.3971 271.08 49.4413 270.961 49.4409Z" fill="#1A1A1A"/>
</g>
<defs>
<clipPath id="clip0_484_321">
<rect width="175" height="40" fill="white" transform="translate(109 34)"/>
</clipPath>
</defs>
</svg>
