<svg width="352" height="108" viewBox="0 0 352 108" fill="none" xmlns="http://www.w3.org/2000/svg">
<g clip-path="url(#clip0_484_307)">
<path fill-rule="evenodd" clip-rule="evenodd" d="M127.644 47.3482C126.328 46.4692 124.781 46 123.199 46V38C126.364 38 129.457 38.9384 132.088 40.6965C134.72 42.4546 136.77 44.9534 137.981 47.877C139.192 50.8006 139.509 54.0178 138.892 57.1214C138.274 60.2251 136.751 63.0761 134.513 65.3137C132.275 67.5514 129.424 69.0752 126.321 69.6926C123.217 70.3099 120 69.993 117.076 68.7821C114.153 67.571 111.654 65.5203 109.896 62.8891C108.138 60.2579 107.199 57.1645 107.199 54H115.199C115.199 55.5822 115.668 57.129 116.547 58.4446C117.427 59.7602 118.676 60.7855 120.138 61.391C121.6 61.9966 123.208 62.155 124.76 61.8462C126.312 61.5376 127.737 60.7757 128.856 59.6569C129.975 58.538 130.737 57.1126 131.045 55.5607C131.354 54.0089 131.196 52.4003 130.59 50.9386C129.985 49.4767 128.959 48.2273 127.644 47.3482Z" fill="#FCFFF4"/>
<path fill-rule="evenodd" clip-rule="evenodd" d="M115.199 38C115.199 39.0506 114.992 40.0909 114.59 41.0615C114.188 42.0321 113.599 42.914 112.856 43.6569C112.113 44.3997 111.231 44.989 110.261 45.391C109.29 45.7931 108.25 46 107.199 46L107.199 54C109.3 54 111.381 53.5862 113.322 52.7821C115.263 51.978 117.027 50.7994 118.513 49.3137C119.999 47.828 121.177 46.0642 121.981 44.1229C122.785 42.1817 123.199 40.1011 123.199 38L115.199 38Z" fill="#FCFFF4"/>
<path d="M207.694 49.562H203.812V61.8919H207.694V49.562Z" fill="#FCFFF4"/>
<path d="M204.244 47.2534C204.65 47.6593 205.157 47.8623 205.766 47.8623C206.375 47.8623 206.874 47.6593 207.263 47.2534C207.652 46.8306 207.847 46.3231 207.847 45.7312C207.847 45.1223 207.652 44.6149 207.263 44.209C206.874 43.803 206.375 43.6001 205.766 43.6001C205.157 43.6001 204.65 43.803 204.244 44.209C203.855 44.6149 203.66 45.1223 203.66 45.7312C203.66 46.3231 203.855 46.8306 204.244 47.2534Z" fill="#FCFFF4"/>
<path d="M148.123 61.8918V43.9805H152.106V58.3907H160.047V61.8918H148.123Z" fill="#FCFFF4"/>
<path fill-rule="evenodd" clip-rule="evenodd" d="M167.221 62.1707C165.953 62.1707 164.802 61.8917 163.771 61.3335C162.756 60.7585 161.953 59.9805 161.361 58.9994C160.769 58.0185 160.473 56.9191 160.473 55.7014C160.473 54.4836 160.769 53.3927 161.361 52.4286C161.953 51.4646 162.756 50.7034 163.771 50.1454C164.786 49.5702 165.936 49.2827 167.221 49.2827C168.506 49.2827 169.657 49.5618 170.671 50.1199C171.686 50.6781 172.49 51.4477 173.082 52.4286C173.674 53.3927 173.97 54.4836 173.97 55.7014C173.97 56.9191 173.674 58.0185 173.082 58.9994C172.49 59.9805 171.686 60.7585 170.671 61.3335C169.657 61.8917 168.506 62.1707 167.221 62.1707ZM167.221 58.6443C167.779 58.6443 168.27 58.5259 168.693 58.2891C169.115 58.0354 169.437 57.6887 169.657 57.249C169.893 56.7923 170.012 56.2764 170.012 55.7014C170.012 55.1263 169.893 54.6274 169.657 54.2046C169.42 53.7648 169.09 53.4266 168.667 53.1898C168.261 52.936 167.779 52.8092 167.221 52.8092C166.68 52.8092 166.198 52.936 165.775 53.1898C165.352 53.4266 165.022 53.7648 164.786 54.2046C164.549 54.6443 164.43 55.1517 164.43 55.7267C164.43 56.2849 164.549 56.7923 164.786 57.249C165.022 57.6887 165.352 58.0354 165.775 58.2891C166.198 58.5259 166.68 58.6443 167.221 58.6443Z" fill="#FCFFF4"/>
<path fill-rule="evenodd" clip-rule="evenodd" d="M177.043 66.712C178.075 67.1855 179.267 67.4223 180.62 67.4223C181.939 67.4223 183.115 67.1602 184.147 66.6359C185.178 66.1115 185.99 65.3843 186.582 64.4541C187.174 63.5239 187.47 62.4245 187.47 61.1559V49.5619H183.664V50.3903C183.381 50.152 183.06 49.952 182.7 49.7902C182.041 49.4688 181.288 49.3081 180.443 49.3081C179.309 49.3081 178.303 49.5787 177.423 50.1199C176.544 50.6443 175.851 51.3715 175.343 52.3018C174.836 53.2151 174.582 54.2468 174.582 55.397C174.582 56.5302 174.836 57.5619 175.343 58.4921C175.851 59.4223 176.544 60.1581 177.423 60.6993C178.303 61.2405 179.309 61.5111 180.443 61.5111C181.271 61.5111 182.024 61.3505 182.7 61.0291C183.028 60.8735 183.324 60.69 183.588 60.4787V61.2575C183.588 62.12 183.309 62.7881 182.751 63.2617C182.21 63.7353 181.457 63.972 180.493 63.972C179.715 63.972 179.047 63.8367 178.489 63.5661C177.948 63.2955 177.457 62.898 177.017 62.3737L174.633 64.7585C175.225 65.6042 176.028 66.2554 177.043 66.712ZM182.574 57.7056C182.185 57.9424 181.719 58.0608 181.178 58.0608C180.637 58.0608 180.163 57.9424 179.757 57.7056C179.368 57.4688 179.064 57.1475 178.844 56.7415C178.624 56.3187 178.514 55.8705 178.514 55.397C178.514 54.8895 178.624 54.4329 178.844 54.027C179.064 53.6211 179.377 53.2997 179.783 53.0629C180.189 52.8261 180.654 52.7077 181.178 52.7077C181.719 52.7077 182.185 52.8261 182.574 53.0629C182.979 53.2997 183.284 53.6211 183.487 54.027C183.707 54.4329 183.817 54.8895 183.817 55.397C183.817 55.9043 183.707 56.361 183.487 56.7669C183.284 57.1559 182.979 57.4688 182.574 57.7056Z" fill="#FCFFF4"/>
<path fill-rule="evenodd" clip-rule="evenodd" d="M195.639 62.1707C194.371 62.1707 193.22 61.8917 192.189 61.3335C191.174 60.7585 190.371 59.9805 189.779 58.9994C189.187 58.0185 188.891 56.9191 188.891 55.7014C188.891 54.4836 189.187 53.3927 189.779 52.4286C190.371 51.4646 191.174 50.7034 192.189 50.1454C193.203 49.5702 194.354 49.2827 195.639 49.2827C196.924 49.2827 198.075 49.5618 199.089 50.1199C200.104 50.6781 200.907 51.4477 201.499 52.4286C202.091 53.3927 202.387 54.4836 202.387 55.7014C202.387 56.9191 202.091 58.0185 201.499 58.9994C200.907 59.9805 200.104 60.7585 199.089 61.3335C198.075 61.8917 196.924 62.1707 195.639 62.1707ZM195.639 58.6443C196.197 58.6443 196.687 58.5259 197.111 58.2891C197.533 58.0354 197.855 57.6887 198.075 57.249C198.311 56.7923 198.43 56.2764 198.43 55.7014C198.43 55.1263 198.311 54.6274 198.075 54.2046C197.838 53.7648 197.508 53.4266 197.085 53.1898C196.679 52.936 196.197 52.8092 195.639 52.8092C195.098 52.8092 194.615 52.936 194.193 53.1898C193.77 53.4266 193.44 53.7648 193.203 54.2046C192.967 54.6443 192.848 55.1517 192.848 55.7267C192.848 56.2849 192.967 56.7923 193.203 57.249C193.44 57.6887 193.77 58.0354 194.193 58.2891C194.615 58.5259 195.098 58.6443 195.639 58.6443Z" fill="#FCFFF4"/>
<path fill-rule="evenodd" clip-rule="evenodd" d="M217.023 62.1454C216.195 62.1454 215.434 61.9847 214.74 61.6634C214.375 61.4943 214.046 61.2923 213.751 61.0576V67.0926H209.92V49.5619H213.802V50.4128C214.083 50.1825 214.396 49.9834 214.74 49.8155C215.434 49.4772 216.195 49.3081 217.023 49.3081C218.19 49.3081 219.222 49.5872 220.118 50.1454C221.032 50.7035 221.742 51.4646 222.25 52.4287C222.774 53.3927 223.036 54.4921 223.036 55.7267C223.036 56.9615 222.774 58.0608 222.25 59.0249C221.742 59.989 221.032 60.75 220.118 61.3082C219.222 61.8663 218.19 62.1454 217.023 62.1454ZM216.314 58.6443C216.871 58.6443 217.354 58.5175 217.759 58.2638C218.182 58.0101 218.512 57.6633 218.749 57.2236C218.986 56.7839 219.104 56.2849 219.104 55.7267C219.104 55.1517 218.986 54.6443 218.749 54.2046C218.512 53.7648 218.182 53.4266 217.759 53.1898C217.354 52.936 216.88 52.8092 216.338 52.8092C215.798 52.8092 215.315 52.936 214.893 53.1898C214.486 53.4266 214.166 53.7648 213.929 54.2046C213.692 54.6443 213.574 55.1517 213.574 55.7267C213.574 56.2849 213.683 56.7839 213.903 57.2236C214.14 57.6633 214.47 58.0101 214.893 58.2638C215.315 58.5175 215.789 58.6443 216.314 58.6443Z" fill="#FCFFF4"/>
<path d="M226.835 61.9174C227.546 62.1035 228.264 62.1965 228.991 62.1965C230.531 62.1965 231.748 61.8414 232.645 61.131C233.558 60.4206 234.015 59.465 234.015 58.2642C234.015 57.4862 233.871 56.8603 233.583 56.3868C233.296 55.8963 232.924 55.5073 232.467 55.2198C232.011 54.9322 231.528 54.7038 231.021 54.5347C230.514 54.3656 230.031 54.2218 229.575 54.1034C229.119 53.985 228.747 53.8498 228.459 53.6975C228.171 53.5453 228.027 53.3423 228.027 53.0886C228.027 52.8518 228.138 52.6742 228.357 52.5558C228.577 52.4206 228.907 52.353 229.347 52.353C229.803 52.353 230.268 52.4459 230.742 52.632C231.232 52.818 231.672 53.1394 232.061 53.5961L234.268 51.3635C233.711 50.6531 232.983 50.1203 232.087 49.7652C231.207 49.3931 230.243 49.207 229.195 49.207C228.197 49.207 227.326 49.3762 226.582 49.7144C225.837 50.0527 225.262 50.5178 224.856 51.1098C224.451 51.6848 224.247 52.3698 224.247 53.1648C224.247 53.909 224.391 54.5263 224.679 55.0168C224.966 55.4903 225.339 55.8625 225.795 56.133C226.251 56.4037 226.734 56.6151 227.241 56.7673C227.748 56.9195 228.231 57.0633 228.687 57.1986C229.143 57.317 229.516 57.4608 229.803 57.6299C230.108 57.7822 230.26 58.0105 230.26 58.3149C230.26 58.5517 230.133 58.7377 229.879 58.873C229.643 59.0083 229.296 59.076 228.839 59.076C228.179 59.076 227.571 58.9576 227.013 58.7208C226.455 58.4671 225.972 58.1204 225.567 57.6806L223.359 59.9132C223.783 60.3698 224.29 60.7758 224.882 61.131C225.491 61.4692 226.142 61.7314 226.835 61.9174Z" fill="#FCFFF4"/>
<path d="M241.093 62.1709C239.96 62.1709 238.953 61.9426 238.074 61.4859C237.211 61.0123 236.535 60.3696 236.045 59.5578C235.553 58.7291 235.309 57.7819 235.309 56.7163V49.562H239.19V56.6656C239.19 57.0884 239.257 57.4521 239.393 57.7565C239.545 58.061 239.765 58.2978 240.053 58.4669C240.341 58.636 240.687 58.7206 241.093 58.7206C241.668 58.7206 242.125 58.543 242.463 58.1878C242.801 57.8157 242.97 57.3083 242.97 56.6656V49.562H246.852V56.691C246.852 57.7735 246.607 58.7291 246.116 59.5578C245.625 60.3696 244.949 61.0123 244.086 61.4859C243.224 61.9426 242.226 62.1709 241.093 62.1709Z" fill="#FCFFF4"/>
<path d="M252.665 49.5619H248.783V61.8917H252.665V54.6866C252.665 54.2638 252.75 53.9086 252.918 53.6211C253.105 53.3335 253.35 53.1136 253.654 52.9615C253.959 52.7923 254.306 52.7077 254.694 52.7077C255.253 52.7077 255.718 52.8853 256.09 53.2405C256.479 53.5787 256.674 54.0608 256.674 54.6866V61.8917H260.555V54.6866C260.555 54.2638 260.64 53.9086 260.809 53.6211C260.995 53.3335 261.24 53.1136 261.545 52.9615C261.849 52.7923 262.196 52.7077 262.585 52.7077C263.143 52.7077 263.608 52.8853 263.98 53.2405C264.369 53.5787 264.563 54.0608 264.563 54.6866V61.8917H268.446V54.2553C268.446 53.2236 268.226 52.3441 267.786 51.6168C267.362 50.8726 266.779 50.306 266.035 49.9171C265.308 49.5111 264.47 49.3081 263.523 49.3081C262.559 49.3081 261.688 49.5195 260.91 49.9424C260.405 50.2118 259.963 50.5595 259.585 50.9854C259.232 50.5399 258.803 50.1753 258.297 49.8916C257.621 49.5027 256.851 49.3081 255.989 49.3081C255.075 49.3081 254.255 49.5027 253.528 49.8916C253.211 50.0535 252.924 50.2473 252.665 50.4731V49.5619Z" fill="#FCFFF4"/>
</g>
<defs>
<clipPath id="clip0_484_307">
<rect width="161.6" height="32" fill="white" transform="translate(107.199 38)"/>
</clipPath>
</defs>
</svg>
