<svg width="352" height="108" viewBox="0 0 352 108" fill="none" xmlns="http://www.w3.org/2000/svg">
<g clip-path="url(#clip0_484_348)">
<path d="M162.787 35.5386C159.038 35.5386 155.443 37.0279 152.792 39.6788L144.14 48.3305C141.489 50.9814 140 54.5769 140 58.3259C140 66.1329 146.329 72.4617 154.136 72.4617C157.885 72.4617 161.48 70.9723 164.131 68.3213L170.116 62.337C170.116 62.3371 170.116 62.3369 170.116 62.337L187.552 44.9005C188.818 43.6345 190.535 42.9232 192.326 42.9232C195.323 42.9232 197.865 44.8769 198.746 47.5805L204.249 42.0776C201.738 38.1458 197.337 35.5386 192.326 35.5386C188.577 35.5386 184.981 37.0279 182.33 39.6788L158.91 63.0997C157.643 64.3658 155.926 65.077 154.136 65.077C150.407 65.077 147.385 62.0545 147.385 58.3259C147.385 56.5354 148.096 54.8182 149.362 53.5521L158.014 44.9005C159.28 43.6345 160.997 42.9232 162.787 42.9232C165.785 42.9232 168.326 44.877 169.208 47.5807L174.711 42.0777C172.2 38.1458 167.798 35.5386 162.787 35.5386Z" fill="#FCFFF4"/>
<path d="M188.448 63.0997C187.182 64.3658 185.465 65.077 183.675 65.077C180.677 65.077 178.136 63.1238 177.255 60.4207L171.752 65.9234C174.262 69.8548 178.664 72.4617 183.675 72.4617C187.424 72.4617 191.019 70.9723 193.67 68.3213L217.091 44.9005C218.357 43.6345 220.074 42.9232 221.865 42.9232C225.593 42.9232 228.616 45.9458 228.616 49.6743C228.616 51.4649 227.904 53.182 226.638 54.4481L217.987 63.0997C216.721 64.3658 215.004 65.077 213.213 65.077C210.215 65.077 207.674 63.1234 206.793 60.4201L201.29 65.9229C203.801 69.8546 208.202 72.4617 213.213 72.4617C216.962 72.4617 220.557 70.9723 223.208 68.3213L231.86 59.6698C234.511 57.0188 236 53.4234 236 49.6743C236 41.8674 229.672 35.5386 221.865 35.5386C218.116 35.5386 214.52 37.0279 211.869 39.6788L188.448 63.0997Z" fill="#FCFFF4"/>
</g>
<defs>
<clipPath id="clip0_484_348">
<rect width="96" height="36.9231" fill="white" transform="translate(140 35.5386)"/>
</clipPath>
</defs>
</svg>
