<svg width="352" height="108" viewBox="0 0 352 108" fill="none" xmlns="http://www.w3.org/2000/svg">
<g clip-path="url(#clip0_484_396)">
<path d="M183.137 69.238H185.871V58.9237H183.137V69.238ZM183.137 57.3152H185.871V54.8623H183.137V57.3152Z" fill="#FCFFF4"/>
<path d="M187.633 72.6157H190.367V68.0718H190.408C190.991 68.9564 191.936 69.5395 193.383 69.5395C196.037 69.5395 197.847 67.4284 197.847 64.0908C197.847 60.8738 196.097 58.6421 193.363 58.6421C191.956 58.6421 190.991 59.3056 190.327 60.2103H190.267V58.9236H187.633V72.6157ZM192.8 67.2675C191.172 67.2675 190.307 66.0411 190.307 64.1712C190.307 62.3215 190.991 60.8537 192.7 60.8537C194.388 60.8537 195.072 62.2209 195.072 64.1712C195.072 66.1215 194.187 67.2675 192.8 67.2675Z" fill="#FCFFF4"/>
<path d="M203.3 69.5395C205.874 69.5395 207.643 68.2929 207.643 66.222C207.643 63.8093 205.733 63.3268 204.004 62.9649C202.536 62.6633 201.169 62.5828 201.169 61.6982C201.169 60.9543 201.873 60.5521 202.938 60.5521C204.104 60.5521 204.808 60.9543 204.929 62.0601H207.402C207.201 59.9892 205.693 58.6421 202.978 58.6421C200.626 58.6421 198.776 59.7077 198.776 61.9394C198.776 64.1913 200.586 64.694 202.436 65.0559C203.843 65.3373 205.15 65.4379 205.15 66.4231C205.15 67.1469 204.466 67.6093 203.26 67.6093C202.033 67.6093 201.189 67.0866 201.008 65.9003H198.475C198.636 68.0919 200.304 69.5395 203.3 69.5395Z" fill="#FCFFF4"/>
<path d="M218.025 69.2381V58.9238H215.291V64.8751C215.291 66.2423 214.507 67.2074 213.22 67.2074C212.054 67.2074 211.511 66.5439 211.511 65.3375V58.9238H208.797V65.8C208.797 68.0518 210.084 69.5196 212.376 69.5196C213.823 69.5196 214.628 68.9767 215.331 68.0317H215.392V69.2381H218.025Z" fill="#FCFFF4"/>
<path d="M219.793 69.2379H222.527V63.2463C222.527 61.8791 223.271 60.9945 224.377 60.9945C225.382 60.9945 225.966 61.5976 225.966 62.7638V69.2379H228.7V63.2463C228.7 61.8791 229.404 60.9945 230.55 60.9945C231.555 60.9945 232.138 61.5976 232.138 62.7638V69.2379H234.872V62.3014C234.872 60.0495 233.646 58.6421 231.475 58.6421C230.168 58.6421 229.082 59.3257 228.378 60.4516H228.338C227.835 59.3659 226.79 58.6421 225.483 58.6421C224.055 58.6421 223.05 59.3659 222.487 60.3109H222.427V58.9236H219.793V69.2379Z" fill="#FCFFF4"/>
<path d="M183.176 51.572H185.91V37.1963H183.176V51.572Z" fill="#FCFFF4"/>
<path d="M192.597 51.8735C195.794 51.8735 197.986 49.501 197.986 46.4248C197.986 43.3486 195.794 40.9761 192.597 40.9761C189.401 40.9761 187.209 43.3486 187.209 46.4248C187.209 49.501 189.401 51.8735 192.597 51.8735ZM192.597 49.7825C190.908 49.7825 189.984 48.4354 189.984 46.4248C189.984 44.4142 190.908 43.047 192.597 43.047C194.266 43.047 195.211 44.4142 195.211 46.4248C195.211 48.4354 194.266 49.7825 192.597 49.7825Z" fill="#FCFFF4"/>
<path d="M203.801 55.0905C205.329 55.0905 206.656 54.7286 207.52 53.9243C208.284 53.2206 208.747 52.2354 208.747 50.7878V41.2576H206.113V42.3433H206.073C205.449 41.4787 204.504 40.9761 203.217 40.9761C200.604 40.9761 198.754 42.9465 198.754 46.0227C198.754 49.1391 201.006 50.9486 203.298 50.9486C204.605 50.9486 205.389 50.4259 205.992 49.7423H206.052V50.8682C206.052 52.2756 205.309 53.0195 203.76 53.0195C202.494 53.0195 201.911 52.5169 201.689 51.8735H198.975C199.257 53.8841 200.986 55.0905 203.801 55.0905ZM203.76 48.7571C202.353 48.7571 201.428 47.7317 201.428 45.9825C201.428 44.2534 202.353 43.1676 203.74 43.1676C205.389 43.1676 206.193 44.4544 206.193 45.9624C206.193 47.4904 205.489 48.7571 203.76 48.7571Z" fill="#FCFFF4"/>
<path d="M215.392 51.8735C218.589 51.8735 220.781 49.501 220.781 46.4248C220.781 43.3486 218.589 40.9761 215.392 40.9761C212.196 40.9761 210.004 43.3486 210.004 46.4248C210.004 49.501 212.196 51.8735 215.392 51.8735ZM215.392 49.7825C213.703 49.7825 212.779 48.4354 212.779 46.4248C212.779 44.4142 213.703 43.047 215.392 43.047C217.061 43.047 218.006 44.4142 218.006 46.4248C218.006 48.4354 217.061 49.7825 215.392 49.7825Z" fill="#FCFFF4"/>
<path d="M223.178 47.6312H235V45.2788H223.178V47.6312Z" fill="#FCFFF4"/>
<path d="M235.867 57.1718C235.867 56.7091 236.242 56.334 236.705 56.334H238.38C238.843 56.334 239.218 56.7091 239.218 57.1718C239.218 57.6344 238.843 58.0095 238.38 58.0095H236.705C236.242 58.0095 235.867 57.6344 235.867 57.1718Z" fill="#FCFFF4"/>
<path fill-rule="evenodd" clip-rule="evenodd" d="M155.521 34C166.567 34 175.521 42.9543 175.521 54C175.521 65.0457 166.567 74 155.521 74C144.476 74 135.521 65.0457 135.521 54C135.521 42.9543 144.476 34 155.521 34ZM154.799 35.4966C152.517 35.8177 150.344 37.6511 148.658 40.7174C148.169 41.6068 147.727 42.5895 147.343 43.6504C149.636 43.0742 152.155 42.7344 154.799 42.6819V35.4966ZM145.652 44.1308C146.131 42.6296 146.716 41.2484 147.391 40.0206C148.227 38.5006 149.219 37.188 150.337 36.1798C144.258 37.9452 139.467 42.7368 137.701 48.8157C138.709 47.6978 140.022 46.7056 141.542 45.8696C142.77 45.1943 144.151 44.6091 145.652 44.1308ZM145.172 45.8211C144.596 48.1143 144.256 50.6334 144.203 53.2771H137.018C137.339 50.9954 139.173 48.8228 142.239 47.1364C143.128 46.6472 144.111 46.2058 145.172 45.8211ZM145.649 53.2771C145.709 50.392 146.124 47.6834 146.812 45.2902C149.205 44.603 151.914 44.1876 154.799 44.1279V47.2508C153.722 50.0062 151.527 52.2012 148.772 53.2771H145.649ZM144.203 54.7229H137.018C137.339 57.0046 139.173 59.1771 142.239 60.8636C143.128 61.3528 144.111 61.7942 145.172 62.1789C144.596 59.8857 144.256 57.3666 144.203 54.7229ZM146.812 62.7098C146.124 60.3166 145.709 57.608 145.649 54.7229H148.772C151.527 55.7988 153.722 57.9938 154.799 60.7492V63.8721C151.914 63.8124 149.205 63.397 146.812 62.7098ZM145.652 63.8692C144.151 63.3909 142.77 62.8057 141.542 62.1304C140.022 61.2944 138.709 60.3022 137.701 59.1843C139.467 65.2632 144.258 70.0548 150.337 71.8202C149.219 70.812 148.227 69.4994 147.391 67.9793C146.716 66.7516 146.131 65.3704 145.652 63.8692ZM154.799 72.5034C152.517 72.1823 150.344 70.3489 148.658 67.2826C148.169 66.3932 147.727 65.4105 147.343 64.3496C149.636 64.9258 152.155 65.2656 154.799 65.3181V72.5034ZM160.706 71.8202C161.824 70.812 162.816 69.4994 163.652 67.9793C164.327 66.7516 164.912 65.3704 165.391 63.8692C166.892 63.3909 168.273 62.8057 169.501 62.1304C171.021 61.2944 172.334 60.3022 173.342 59.1843C171.576 65.2632 166.785 70.0548 160.706 71.8202ZM163.7 64.3496C163.316 65.4105 162.874 66.3932 162.385 67.2826C160.699 70.3489 158.526 72.1823 156.244 72.5034V65.3181C158.888 65.2656 161.407 64.9258 163.7 64.3496ZM165.871 62.1789C166.932 61.7942 167.915 61.3528 168.804 60.8636C171.87 59.1771 173.704 57.0046 174.025 54.7229H166.84C166.787 57.3666 166.447 59.8857 165.871 62.1789ZM165.394 54.7229C165.334 57.608 164.918 60.3166 164.231 62.7098C161.838 63.397 159.129 63.8124 156.244 63.8721V60.7515C157.32 57.9951 159.516 55.7991 162.272 54.7229H165.394ZM166.84 53.2771H174.025C173.704 50.9954 171.87 48.8228 168.804 47.1364C167.915 46.6472 166.932 46.2058 165.871 45.8211C166.447 48.1143 166.787 50.6334 166.84 53.2771ZM164.231 45.2902C164.918 47.6834 165.334 50.392 165.394 53.2771H162.272C159.516 52.2009 157.32 50.0049 156.244 47.2485V44.1279C159.129 44.1876 161.838 44.603 164.231 45.2902ZM165.391 44.1308C166.892 44.6091 168.273 45.1943 169.501 45.8696C171.021 46.7056 172.334 47.6978 173.342 48.8157C171.576 42.7368 166.785 37.9452 160.706 36.1798C161.824 37.188 162.816 38.5006 163.652 40.0206C164.327 41.2484 164.912 42.6296 165.391 44.1308ZM156.244 35.4966C158.526 35.8177 160.699 37.6511 162.385 40.7174C162.874 41.6068 163.316 42.5895 163.7 43.6504C161.407 43.0742 158.888 42.7344 156.244 42.6819V35.4966Z" fill="#FCFFF4"/>
</g>
<defs>
<clipPath id="clip0_484_396">
<rect width="105" height="40" fill="white" transform="translate(135 34)"/>
</clipPath>
</defs>
</svg>
